# WaveFront *.obj file (generated by CINEMA 4D)

mtllib ./candeeiro.mtl

v -5.85345411300659 138.18722534179688 5.25
v -5.85345411300659 153.18722534179688 5.25
v 4.64654588699341 138.18722534179688 5.25
v 4.64654588699341 153.18722534179688 5.25
v 4.64654588699341 138.18722534179688 -5.25
v 4.64654588699341 153.18722534179688 -5.25
v -5.85345411300659 138.18722534179688 -5.25
v -5.85345411300659 153.18722534179688 -5.25
v 2.77154517173767 -0.18777465820312 -22.5
v 2.77154684066772 -0.18777465820312 22.5
v 2.77154517173767 3.56222534179688 -22.5
v 2.77154684066772 3.56222534179688 22.5
v -3.97845482826233 3.56222534179688 -22.5
v -3.97845315933228 3.56222534179688 22.5
v -3.97845482826233 -0.18777465820312 -22.5
v -3.97845315933228 -0.18777465820312 22.5
v 21.89654541015625 -0.18777465820312 3.375
v -23.10345458984375 -0.18777465820312 3.375
v 21.89654541015625 3.56222534179688 3.375
v -23.10345458984375 3.56222534179688 3.375
v 21.89654541015625 3.56222534179688 -3.375
v -23.10345458984375 3.56222534179688 -3.375
v 21.89654541015625 -0.18777465820312 -3.375
v -23.10345458984375 -0.18777465820312 -3.375
v -1.69299626350403 131.48786926269531 1.125
v 19.45008850097656 139.18331909179688 1.125
v -0.92345088720322 129.37355041503906 1.125
v 20.21963310241699 137.06901550292969 1.125
v -0.92345088720322 129.37355041503906 -1.125
v 20.21963310241699 137.06901550292969 -1.125
v -1.69299626350403 131.48786926269531 -1.125
v 19.45008850097656 139.18331909179688 -1.125
v -1.72845411300659 129.37355041503906 -0.31999680399895
v -1.72845411300659 137.06901550292969 20.82308769226074
v 0.52154588699341 129.37355041503906 -0.31999680399895
v 0.52154588699341 137.06901550292969 20.82308769226074
v 0.52154588699341 131.48786926269531 -1.08954215049744
v 0.52154588699341 139.18331909179688 20.05354118347168
v -1.72845411300659 131.48786926269531 -1.08954215049744
v -1.72845411300659 139.18331909179688 20.05354118347168
v -1.72845411300659 131.48786926269531 1.08954215049744
v -1.72845411300659 139.18331909179688 -20.05354118347168
v 0.52154588699341 131.48786926269531 1.08954215049744
v 0.52154588699341 139.18331909179688 -20.05354118347168
v 0.52154588699341 129.37355041503906 0.31999680399895
v 0.52154588699341 137.06901550292969 -20.82308769226074
v -1.72845411300659 129.37355041503906 0.31999680399895
v -1.72845411300659 137.06901550292969 -20.82308769226074
v -0.28345727920532 129.37355041503906 1.125
v -21.42654037475586 137.06901550292969 1.125
v 0.48608803749084 131.48786926269531 1.125
v -20.65699577331543 139.18331909179688 1.125
v 0.48608803749084 131.48786926269531 -1.125
v -20.65699577331543 139.18331909179688 -1.125
v -0.28345727920532 129.37355041503906 -1.125
v -21.42654037475586 137.06901550292969 -1.125
v -3.97845411300659 93.18722534179688 3.375
v -3.97845411300659 138.18722534179688 3.375
v 2.77154588699341 93.18722534179688 3.375
v 2.77154588699341 138.18722534179688 3.375
v 2.77154588699341 93.18722534179688 -3.375
v 2.77154588699341 138.18722534179688 -3.375
v -3.97845411300659 93.18722534179688 -3.375
v -3.97845411300659 138.18722534179688 -3.375
v -3.97845411300659 48.18722534179688 3.375
v 2.77154588699341 48.18722534179688 3.375
v 2.77154588699341 48.18722534179688 -3.375
v -3.97845411300659 48.18722534179688 -3.375
v -3.97845411300659 3.18722534179688 3.375
v 2.77154588699341 3.18722534179688 3.375
v 2.77154588699341 3.18722534179688 -3.375
v -3.97845411300659 3.18722534179688 -3.375
# 72 vertices

vn 0 0 1
vn 1 0 0
vn 0 0 -1
vn -1 0 0
vn 0 1 0
vn 0 -1 0
vn 1 0 -0.00000003708734
vn -1 0 0.00000003708734
vn 0.34202063083649 -0.93969243764877 0
vn -0.34202000498772 0.93969267606735 0
vn 0.93969249725342 0.34202057123184 0
vn -0.93969315290451 -0.34201866388321 0
vn 0 -0.93969243764877 0.34202063083649
vn 0 0.93969267606735 -0.34202000498772
vn 0 0.3420213162899 0.93969219923019
vn 0 -0.34201863408089 -0.93969315290451
vn 0 0.93969267606735 0.34202000498772
vn 0 -0.93969243764877 -0.34202063083649
vn 0 0.3420213162899 -0.93969219923019
vn 0 -0.34201863408089 0.93969315290451
vn 0.34202000498772 0.93969267606735 0
vn -0.34202063083649 -0.93969243764877 0
vn -0.93969249725342 0.34202057123184 0
vn 0.93969315290451 -0.34201863408089 0
# 24 normals

vt 0 0 0
vt 0 1 0
vt 1 1 0
vt 1 0 0
vt 0.63071620464325 0.00868940353394 0
vt 0.63071620464325 0.49131059646606 0
vt 0.67310225963593 0.49131059646606 0
vt 0.67310225963593 0.00868940353394 0
vt 0.72532659769058 0.50868940353394 0
vt 0.72532659769058 0.99131059646606 0
vt 0.8016214966774 0.99131059646606 0
vt 0.8016214966774 0.50868940353394 0
vt 0.69141775369644 0.00868940353394 0
vt 0.69141775369644 0.49131059646606 0
vt 0.73380380868912 0.49131059646606 0
vt 0.73380380868912 0.00868940353394 0
vt 0.81993699073792 0.50868940353394 0
vt 0.81993699073792 0.99131059646606 0
vt 0.89623188972473 0.99131059646606 0
vt 0.89623188972473 0.50868940353394 0
vt 0.7690737247467 0.07045602798462 0
vt 0.7690737247467 0.14284920692444 0
vt 0.81145977973938 0.14284920692444 0
vt 0.81145977973938 0.07045602798462 0
vt 0.8297752737999 0.07045602798462 0
vt 0.8297752737999 0.14284920692444 0
vt 0.87216132879257 0.14284920692444 0
vt 0.87216132879257 0.07045602798462 0
vt 0.77618986368179 0.25 0
vt 0.77618986368179 0.49131059646606 0
vt 0.8016214966774 0.49131059646606 0
vt 0.8016214966774 0.25 0
vt 0.86368411779404 0.25 0
vt 0.86368411779404 0.49131059646606 0
vt 0.88911575078964 0.49131059646606 0
vt 0.88911575078964 0.25 0
vt 0.81993699073792 0.25 0
vt 0.81993699073792 0.49131059646606 0
vt 0.84536862373352 0.49131059646606 0
vt 0.84536862373352 0.25 0
vt 0.90743124485016 0.25 0
vt 0.90743124485016 0.49131059646606 0
vt 0.93286281824112 0.49131059646606 0
vt 0.93286281824112 0.25 0
vt 0.91454738378525 0.11871814727783 0
vt 0.91454738378525 0.14284920692444 0
vt 0.93997901678085 0.14284920692444 0
vt 0.93997901678085 0.11871814727783 0
vt 0.91454738378525 0.07720828056335 0
vt 0.91454738378525 0.10133934020996 0
vt 0.93997901678085 0.10133934020996 0
vt 0.93997901678085 0.07720828056335 0
vt 0.53610587120056 0.50868940353394 0
vt 0.53610587120056 0.99131059646606 0
vt 0.61240077018738 0.99131059646606 0
vt 0.61240077018738 0.50868940353394 0
vt 0.91454738378525 0.50868940353394 0
vt 0.91454738378525 0.99131059646606 0
vt 0.99084228277206 0.99131059646606 0
vt 0.99084228277206 0.50868940353394 0
vt 0.63071620464325 0.50868940353394 0
vt 0.63071620464325 0.99131059646606 0
vt 0.70701110363007 0.99131059646606 0
vt 0.70701110363007 0.50868940353394 0
vt 0.53610587120056 0.00868940353394 0
vt 0.53610587120056 0.49131059646606 0
vt 0.61240077018738 0.49131059646606 0
vt 0.61240077018738 0.00868940353394 0
vt 0.7690737247467 0.16022801399231 0
vt 0.7690737247467 0.23262119293213 0
vt 0.84536862373352 0.23262119293213 0
vt 0.84536862373352 0.16022801399231 0
vt 0.86368411779404 0.16022801399231 0
vt 0.86368411779404 0.23262119293213 0
vt 0.93997901678085 0.23262119293213 0
vt 0.93997901678085 0.16022801399231 0
# 76 texture coordinates

o madeira
usemtl Teeth
f 3/4/1 4/3/1 2/2/1 1/1/1
f 5/4/2 6/3/2 4/2/2 3/1/2
f 7/4/3 8/3/3 6/2/3 5/1/3
f 1/4/4 2/3/4 8/2/4 7/1/4
f 4/4/5 6/3/5 8/2/5 2/1/5
f 5/4/6 3/3/6 1/2/6 7/1/6

usemtl Материал.15
f 11/8/7 12/7/7 10/6/7 9/5/7
f 13/12/5 14/11/5 12/10/5 11/9/5
f 15/16/8 16/15/8 14/14/8 13/13/8
f 9/20/6 10/19/6 16/18/6 15/17/6
f 12/24/1 14/23/1 16/22/1 10/21/1
f 13/28/3 11/27/3 9/26/3 15/25/3
f 19/8/1 20/7/1 18/6/1 17/5/1
f 21/12/5 22/11/5 20/10/5 19/9/5
f 23/16/3 24/15/3 22/14/3 21/13/3
f 17/20/6 18/19/6 24/18/6 23/17/6
f 20/24/4 22/23/4 24/22/4 18/21/4
f 21/28/2 19/27/2 17/26/2 23/25/2
f 27/32/1 28/31/1 26/30/1 25/29/1
f 29/36/9 30/35/9 28/34/9 27/33/9
f 31/40/3 32/39/3 30/38/3 29/37/3
f 25/44/10 26/43/10 32/42/10 31/41/10
f 28/48/11 30/47/11 32/46/11 26/45/11
f 29/52/12 27/51/12 25/50/12 31/49/12
f 35/32/13 36/31/13 34/30/13 33/29/13
f 37/36/2 38/35/2 36/34/2 35/33/2
f 39/40/14 40/39/14 38/38/14 37/37/14
f 33/44/4 34/43/4 40/42/4 39/41/4
f 36/48/15 38/47/15 40/46/15 34/45/15
f 37/52/16 35/51/16 33/50/16 39/49/16
f 43/32/17 44/31/17 42/30/17 41/29/17
f 45/36/2 46/35/2 44/34/2 43/33/2
f 47/40/18 48/39/18 46/38/18 45/37/18
f 41/44/4 42/43/4 48/42/4 47/41/4
f 44/48/19 46/47/19 48/46/19 42/45/19
f 45/52/20 43/51/20 41/50/20 47/49/20
f 51/32/1 52/31/1 50/30/1 49/29/1
f 53/36/21 54/35/21 52/34/21 51/33/21
f 55/40/3 56/39/3 54/38/3 53/37/3
f 49/44/22 50/43/22 56/42/22 55/41/22
f 52/48/23 54/47/23 56/46/23 50/45/23
f 53/52/24 51/51/24 49/50/24 55/49/24
f 59/56/1 60/55/1 58/54/1 57/53/1
f 61/60/2 62/59/2 60/58/2 59/57/2
f 63/64/3 64/63/3 62/62/3 61/61/3
f 57/68/4 58/67/4 64/66/4 63/65/4
f 60/72/5 62/71/5 64/70/5 58/69/5
f 61/76/6 59/75/6 57/74/6 63/73/6
f 66/56/1 59/55/1 57/54/1 65/53/1
f 67/60/2 61/59/2 59/58/2 66/57/2
f 68/64/3 63/63/3 61/62/3 67/61/3
f 65/68/4 57/67/4 63/66/4 68/65/4
f 59/72/5 61/71/5 63/70/5 57/69/5
f 67/76/6 66/75/6 65/74/6 68/73/6
f 70/56/1 66/55/1 65/54/1 69/53/1
f 71/60/2 67/59/2 66/58/2 70/57/2
f 72/64/3 68/63/3 67/62/3 71/61/3
f 69/68/4 65/67/4 68/66/4 72/65/4
f 66/72/5 67/71/5 68/70/5 65/69/5
f 71/76/6 70/75/6 69/74/6 72/73/6

v -23.10345458984375 126.93722534179688 22.5
v -18.60345458984375 179.43722534179688 18
v 21.89654541015625 126.93722534179688 22.5
v 17.39654541015625 179.43722534179688 18
v 21.89654541015625 126.93722534179688 -22.5
v 17.39654541015625 179.43722534179688 -18
v -23.10345458984375 126.93722534179688 -22.5
v -18.60345458984375 179.43722534179688 -18
v -15.00345420837402 179.43722534179688 14.39999961853027
v 13.79654598236084 179.43722534179688 14.39999961853027
v 13.79654598236084 179.43722534179688 -14.39999961853027
v -15.00345420837402 179.43722534179688 -14.39999961853027
v -18.60345458984375 126.93722534179688 18
v 17.39654541015625 126.93722534179688 18
v 17.39654541015625 126.93722534179688 -18
v -18.60345458984375 126.93722534179688 -18
v -19.62030792236328 152.71131896972656 19.01685523986816
v 18.41340065002441 152.71131896972656 19.01685523986816
v 18.41340065002441 152.71131896972656 -19.01685523986816
v -19.62030792236328 152.71131896972656 -19.01685523986816
# 20 vertices

vn 0 0.1339239180088 0.99099159240723
vn 0 0.08607172966003 0.99628895521164
vn 0.99099159240723 0.13392393290997 0
vn 0.99628895521164 0.08607173711061 0
vn 0 0.13392393290997 -0.99099159240723
vn 0 0.08607173711061 -0.99628895521164
vn -0.99628895521164 0.08607172966003 0
vn -0.99927699565887 0.0380199663341 0
vn -0.9976572394371 -0.06841076910496 0
vn 0 -0.06841078400612 -0.9976572394371
vn 0.9976572394371 -0.06841078400612 0
vn 0 -0.06841078400612 0.9976572394371
vn 0 0.03802004083991 0.99927699565887
vn 0.99927699565887 0.03802004083991 0
vn 0 0.03802004083991 -0.99927699565887
vn -0.99099159240723 0.13392399251461 0
# 16 normals

vt 0.00915774144232 0.50868940353394 0
vt 0.03412830457091 0.53238296508789 0
vt 0.4928198158741 0.53238296508789 0
vt 0.51779037714005 0.50868940353394 0
vt 0.4928198158741 0.96761703491211 0
vt 0.51779037714005 0.99131059646606 0
vt 0.03412830457091 0.96761703491211 0
vt 0.00915774144232 0.99131059646606 0
vt 0.06002100557089 0.94304847717285 0
vt 0.06002100557089 0.55695152282715 0
vt 0.51779037714005 0.49131059646606 0
vt 0.46692711114883 0.44304847717285 0
vt 0.06002100557089 0.44304847717285 0
vt 0.00915774144232 0.49131059646606 0
vt 0.06002100557089 0.05695152282715 0
vt 0.00915774144232 0.00868940353394 0
vt 0.10071161389351 0.59556126594543 0
vt 0.42623651027679 0.59556126594543 0
vt 0.46692711114883 0.55695152282715 0
vt 0.42623651027679 0.90443879365921 0
vt 0.46692711114883 0.94304847717285 0
vt 0.10071161389351 0.90443879365921 0
vt 0.46692711114883 0.05695152282715 0
vt 0.51779037714005 0.00868940353394 0
vt 0.42623651027679 0.09556126594543 0
vt 0.42623651027679 0.40443885326386 0
vt 0.10071161389351 0.40443885326386 0
vt 0.10071161389351 0.09556126594543 0
# 28 texture coordinates

o cima
usemtl Материал.2_7
f 75/80/25 90/79/26 89/78/26 73/77/25
f 77/82/27 91/81/28 90/79/28 75/80/27
f 79/84/29 92/83/30 91/81/30 77/82/29
f 89/78/31 74/86/32 80/85/32 92/83/31
f 73/90/6 85/89/6 86/88/6 75/87/6
f 79/92/6 88/91/6 85/89/6 73/90/6
f 76/95/5 82/94/5 81/93/5 74/86/5
f 78/97/5 83/96/5 82/94/5 76/95/5
f 80/85/5 84/98/5 83/96/5 78/97/5
f 74/86/5 81/93/5 84/98/5 80/85/5
f 77/100/6 87/99/6 88/91/6 79/92/6
f 75/87/6 86/88/6 87/99/6 77/100/6
f 82/102/33 83/101/33 87/99/33 86/88/33
f 81/103/34 82/102/34 86/88/34 85/89/34
f 84/104/35 81/103/35 85/89/35 88/91/35
f 83/101/36 84/104/36 88/91/36 87/99/36
f 90/79/26 76/95/37 74/86/37 89/78/26
f 91/81/28 78/97/38 76/95/38 90/79/28
f 92/83/30 80/85/39 78/97/39 91/81/30
f 92/83/31 79/84/40 73/77/40 89/78/31

