# WaveFront *.obj file (generated by CINEMA 4D)

mtllib ./cubos.mtl

v -21.7834644317627 -0.2249598801136 231.84867858886719
v -21.7834644317627 7.27504014968872 231.84867858886719
v -16.96255683898926 -0.2249598801136 226.10334777832031
v -16.96255683898926 7.27504014968872 226.10334777832031
v -22.70788955688477 -0.2249598801136 221.28244018554688
v -22.70788955688477 7.27504014968872 221.28244018554688
v -27.5287971496582 -0.2249598801136 227.02777099609375
v -27.5287971496582 7.27504014968872 227.02777099609375
# 8 vertices

vn 0.76604425907135 0 0.64278781414032
vn 0.64278769493103 0 -0.76604437828064
vn -0.76604425907135 0 -0.64278781414032
vn -0.64278769493103 0 0.76604437828064
vn 0 1 0
vn 0 -1 0
# 6 normals

vt 0 0 0
vt 0 1 0
vt 1 1 0
vt 1 0 0
# 4 texture coordinates

o cubo_azul
usemtl Материал.20
f 3/4/1 4/3/1 2/2/1 1/1/1
f 5/4/2 6/3/2 4/2/2 3/1/2
f 7/4/3 8/3/3 6/2/3 5/1/3
f 1/4/4 2/3/4 8/2/4 7/1/4
f 4/4/5 6/3/5 8/2/5 2/1/5
f 5/4/6 3/3/6 1/2/6 7/1/6

v -6.3080792427063 7.27504014968872 218.65240478515625
v -6.3080792427063 14.77503967285156 218.65240478515625
v 1.07797884941101 7.27504014968872 217.35003662109375
v 1.07797884941101 14.77503967285156 217.35003662109375
v -0.22438243031502 7.27504014968872 209.9639892578125
v -0.22438243031502 14.77503967285156 209.9639892578125
v -7.61044073104858 7.27504014968872 211.26634216308594
v -7.61044073104858 14.77503967285156 211.26634216308594
# 8 vertices

vn 0.17364905774593 0 0.98480761051178
vn 0.98480772972107 0 -0.173648416996
vn -0.17364707589149 0 -0.98480796813965
vn -0.98480778932571 0 0.17364810407162
# 4 normals

# 0 texture coordinate

o cubo_amarelo
usemtl Материал.2_9
f 11/4/7 12/3/7 10/2/7 9/1/7
f 13/4/8 14/3/8 12/2/8 11/1/8
f 15/4/9 16/3/9 14/2/9 13/1/9
f 9/4/10 10/3/10 16/2/10 15/1/10
f 12/4/5 14/3/5 16/2/5 10/1/5
f 13/4/6 11/3/6 9/2/6 15/1/6

v -13.69263458251953 -0.2249598801136 223.14382934570312
v -13.69263458251953 7.27504014968872 223.14382934570312
v -6.3065767288208 -0.2249598801136 224.44618225097656
v -6.3065767288208 7.27504014968872 224.44618225097656
v -5.00421524047852 -0.2249598801136 217.06011962890625
v -5.00421524047852 7.27504014968872 217.06011962890625
v -12.39027309417725 -0.2249598801136 215.75776672363281
v -12.39027309417725 7.27504014968872 215.75776672363281
# 8 vertices

vn -0.17364709079266 0 0.98480796813965
vn 0.98480778932571 0 0.17364811897278
vn 0.17364709079266 0 -0.98480796813965
vn -0.98480778932571 0 -0.17364811897278
# 4 normals

# 0 texture coordinate

o cubo_azulinho
usemtl Материал.2_7
f 19/4/11 20/3/11 18/2/11 17/1/11
f 21/4/12 22/3/12 20/2/12 19/1/12
f 23/4/13 24/3/13 22/2/13 21/1/13
f 17/4/14 18/3/14 24/2/14 23/1/14
f 20/4/5 22/3/5 24/2/5 18/1/5
f 21/4/6 19/3/6 17/2/6 23/1/6

v -0.51429694890976 -0.2249598801136 220.390380859375
v -0.51429694890976 7.27504014968872 220.390380859375
v 6.87176132202148 -0.2249598801136 221.6927490234375
v 6.87176132202148 7.27504014968872 221.6927490234375
v 8.17412281036377 -0.2249598801136 214.30668640136719
v 8.17412281036377 7.27504014968872 214.30668640136719
v 0.78806442022324 -0.2249598801136 213.00433349609375
v 0.78806442022324 7.27504014968872 213.00433349609375
# 8 vertices

vn -0.17364905774593 0 0.98480761051178
vn 0.17364707589149 0 -0.98480796813965
vn -0.98480772972107 0 -0.17364843189716
# 3 normals

# 0 texture coordinate

o cubo_verde
usemtl Материал.2_10
f 27/4/15 28/3/15 26/2/15 25/1/15
f 29/4/12 30/3/12 28/2/12 27/1/12
f 31/4/16 32/3/16 30/2/16 29/1/16
f 25/4/17 26/3/17 32/2/17 31/1/17
f 28/4/5 30/3/5 32/2/5 26/1/5
f 29/4/6 27/3/6 25/2/6 31/1/6

v -6.55669021606445 -0.2249598801136 213.30195617675781
v -6.55669021606445 7.27504014968872 213.30195617675781
v 0.49100461602211 -0.2249598801136 210.73680114746094
v 0.49100461602211 7.27504014968872 210.73680114746094
v -2.07414650917053 -0.2249598801136 203.68911743164062
v -2.07414650917053 7.27504014968872 203.68911743164062
v -9.12184143066406 -0.2249598801136 206.25425720214844
v -9.12184143066406 7.27504014968872 206.25425720214844
# 8 vertices

vn 0.34202060103416 0 0.93969243764877
vn 0.93969243764877 0 -0.34202063083649
vn -0.34201881289482 0 -0.93969309329987
vn -0.93969267606735 0 0.34201997518539
# 4 normals

# 0 texture coordinate

o cubo_rosa
usemtl Материал.2_11
f 35/4/18 36/3/18 34/2/18 33/1/18
f 37/4/19 38/3/19 36/2/19 35/1/19
f 39/4/20 40/3/20 38/2/20 37/1/20
f 33/4/21 34/3/21 40/2/21 39/1/21
f 36/4/5 38/3/5 40/2/5 34/1/5
f 37/4/6 35/3/6 33/2/6 39/1/6

v -24.9404182434082 -0.2249598801136 204.12052917480469
v -24.9404182434082 7.27504014968872 204.12052917480469
v -17.4404182434082 -0.2249598801136 204.12052917480469
v -17.4404182434082 7.27504014968872 204.12052917480469
v -17.4404182434082 -0.2249598801136 196.62052917480469
v -17.4404182434082 7.27504014968872 196.62052917480469
v -24.9404182434082 -0.2249598801136 196.62052917480469
v -24.9404182434082 7.27504014968872 196.62052917480469
# 8 vertices

vn 0 0 1
vn 1 0 0
vn 0 0 -1
vn -1 0 0
# 4 normals

# 0 texture coordinate

o cubo_laranja
usemtl Материал.2_12
f 43/4/22 44/3/22 42/2/22 41/1/22
f 45/4/23 46/3/23 44/2/23 43/1/23
f 47/4/24 48/3/24 46/2/24 45/1/24
f 41/4/25 42/3/25 48/2/25 47/1/25
f 44/4/5 46/3/5 48/2/5 42/1/5
f 45/4/6 43/3/6 41/2/6 47/1/6

